<?xml version="1.0" standalone="no"?>
<!DOCTYPE svg PUBLIC "-//W3C//DTD SVG 20010904//EN"
 "http://www.w3.org/TR/2001/REC-SVG-20010904/DTD/svg10.dtd">
<svg version="1.0" xmlns="http://www.w3.org/2000/svg"
 width="277.000000pt" height="277.000000pt" viewBox="0 0 277.000000 277.000000"
 preserveAspectRatio="xMidYMid meet">
<metadata>
Created by potrace 1.14, written by Peter Selinger 2001-2017
</metadata>
<g transform="translate(0.000000,277.000000) scale(0.100000,-0.100000)"
fill="#000000" stroke="none">
<path d="M1178 2439 c-441 -89 -770 -423 -852 -864 -15 -80 -16 -302 -1 -375
52 -268 218 -528 436 -683 115 -81 279 -150 434 -183 17 -3 86 -7 155 -9 302
-9 564 93 778 303 141 139 238 307 288 497 32 122 40 324 18 447 -68 386 -346
710 -714 831 -169 56 -375 70 -542 36z"/>
</g>
</svg>
