<svg width="206" height="65" viewBox="0 0 206 65" fill="none" xmlns="http://www.w3.org/2000/svg">
<path fill-rule="evenodd" clip-rule="evenodd" d="M7.92616 25.9529C7.92615 25.9633 7.92615 25.9737 7.92615 25.9841C7.92615 40.9944 19.2668 53.1626 33.2562 53.1626C46.3026 53.1626 57.0452 42.5797 58.4344 28.9783C58.6026 27.331 57.244 25.9841 55.5882 25.9841L7.95738 25.9841C7.94014 25.9841 7.92616 25.9701 7.92616 25.9529V25.9529Z" fill="#FF9533"/>
<path fill-rule="evenodd" clip-rule="evenodd" d="M63.5901 56.4338C63.5901 56.4875 63.5465 56.531 63.4928 56.531V56.531L63.59 56.5312C75.6314 56.5312 85.3928 46.0575 85.3928 33.1375V33.1375C85.3928 33.123 85.3811 33.1113 85.3666 33.1113L66.0885 33.1113C64.7087 33.1113 63.5901 34.2299 63.5901 35.6097L63.5901 56.4338Z" fill="#FF3D71"/>
<path fill-rule="evenodd" clip-rule="evenodd" d="M63.5901 31.3451C63.5901 31.3837 63.5588 31.4149 63.5203 31.4149V31.4149L63.59 31.415C75.6314 31.415 85.3928 20.9413 85.3928 8.02127V8.02127C85.3928 8.00691 85.3812 7.99529 85.3668 7.99529L66.0885 7.99529C64.7087 7.99529 63.5901 9.11389 63.5901 10.4938L63.5901 31.3451Z" fill="#FF3D71"/>
<path d="M117.109 20.2308L114.635 34.0973C114.335 35.8212 115.01 35.9337 117.034 35.9337L116.584 40.2061C115.984 40.5059 114.86 40.6933 113.848 40.6933C111.45 40.6933 109.801 39.9062 109.051 38.4446C107.74 39.7189 105.566 40.9181 102.305 40.9181C98.1079 40.9181 94.8849 38.6695 95.6719 33.9849L98.033 20.5681L103.954 20.2308L101.743 32.7106C101.293 35.1092 102.643 35.8212 104.404 35.8212C106.24 35.8212 107.665 35.1841 108.789 34.1722L111.187 20.5681L117.109 20.2308ZM129.893 19.856C134.09 19.856 137.314 23.0041 137.314 28.4383C137.314 35.7463 133.154 40.9181 127.082 40.9181C124.684 40.9181 122.885 40.0561 121.723 38.8944L119.999 48.6759H114.153L119.137 20.643L124.009 20.1183C124.159 20.5681 124.271 21.0553 124.309 21.5425C125.733 20.6055 127.644 19.856 129.893 19.856ZM126.445 36.1585C129.144 36.1585 131.355 33.5726 131.355 28.7755C131.355 26.2646 130.043 24.728 127.907 24.728C126.37 24.728 124.984 25.4026 123.897 26.6394L122.548 34.1722C123.222 35.2216 124.609 36.1585 126.445 36.1585ZM151.534 33.7975C152.584 35.0342 153.783 35.9337 155.432 35.9337H155.882L155.394 40.2061C154.87 40.5433 154.008 40.6933 153.371 40.6933C150.297 40.6933 148.948 39.419 146.625 36.196L145.95 35.2591L142.09 36.0086L141.34 40.2061H135.494L140.329 12.6229L146.25 12.3231L144.526 22.0297C146.175 20.6805 148.236 19.856 150.822 19.856C155.02 19.856 157.306 22.1796 157.306 25.7399C157.306 29.7125 155.057 32.2984 151.534 33.7975ZM143.477 28.0635L142.877 31.4364L143.252 31.3615C148.686 30.537 151.497 28.7755 151.497 26.3021C151.497 25.1778 150.822 24.4282 149.286 24.4282C147.074 24.4282 144.901 25.9648 143.477 28.0635ZM162.496 17.8322C160.585 17.8322 159.161 16.633 159.161 14.7216C159.161 12.6229 160.847 11.0864 162.983 11.0864C164.932 11.0864 166.319 12.2856 166.319 14.2344C166.319 16.2957 164.632 17.8322 162.496 17.8322ZM161.222 40.6933C157.849 40.6933 155.45 39.0443 156.163 34.9218L158.748 20.5681L164.67 20.2308L162.159 34.0598C161.859 35.7463 162.496 35.9337 164.595 35.9337L164.108 40.2061C163.471 40.5433 162.346 40.6933 161.222 40.6933ZM178.94 25.0653H172.981L171.557 33.1229C171.182 35.1841 172.269 35.8962 174.405 35.8962C175.867 35.8962 176.953 35.7088 177.628 35.5214L177.403 39.9437C176.466 40.4309 174.555 40.6933 172.344 40.6933C168.146 40.6933 164.698 38.8569 165.598 33.835L167.172 25.0653H162.45L163.724 20.5681H167.921L169.008 14.4968L174.93 14.1595L173.805 20.5681H179.764L178.94 25.0653ZM196.114 26.0772C196.114 31.2865 191.392 33.5726 184.758 33.5726C184.084 33.5726 183.372 33.5351 182.697 33.4977C183.372 35.5589 185.208 36.1211 187.981 36.1211C190.23 36.1211 192.591 35.4465 193.565 34.9967L194.053 39.6064C192.816 40.2435 190.117 40.9181 187.157 40.9181C180.411 40.9181 176.476 37.3203 176.476 31.5863C176.476 24.9154 180.786 19.856 188.019 19.856C193.603 19.856 196.114 22.4794 196.114 26.0772ZM182.659 29.2628C183.259 29.3377 183.934 29.3752 184.721 29.3752C187.719 29.3752 190.042 28.3633 190.042 26.2646C190.042 24.9904 189.293 24.2783 187.719 24.2783C185.17 24.2783 183.259 26.2646 182.659 29.2628Z" fill="#F7F9FC"/>
</svg>
